<?xml version="1.0" encoding="UTF-8" standalone="no"?>
<!-- Created with Inkscape (http://www.inkscape.org/) -->

<svg
   version="1.0"
   width="256"
   height="256"
   id="svg2424"
   class="TridactylThemeDark"
   sodipodi:docname="arch.svg"
   inkscape:version="1.3 (0e150ed6c4, 2023-07-21)"
   inkscape:export-filename="arch.png"
   inkscape:export-xdpi="96"
   inkscape:export-ydpi="96"
   xmlns:inkscape="http://www.inkscape.org/namespaces/inkscape"
   xmlns:sodipodi="http://sodipodi.sourceforge.net/DTD/sodipodi-0.dtd"
   xmlns:xlink="http://www.w3.org/1999/xlink"
   xmlns="http://www.w3.org/2000/svg"
   xmlns:svg="http://www.w3.org/2000/svg"
   xmlns:xhtml="http://www.w3.org/1999/xhtml">
  <sodipodi:namedview
     id="namedview1"
     pagecolor="#ffffff"
     bordercolor="#eeeeee"
     borderopacity="1"
     inkscape:showpageshadow="0"
     inkscape:pageopacity="0"
     inkscape:pagecheckerboard="0"
     inkscape:deskcolor="#d1d1d1"
     inkscape:zoom="3.9247648"
     inkscape:cx="134.53036"
     inkscape:cy="99.878597"
     inkscape:window-width="1900"
     inkscape:window-height="1036"
     inkscape:window-x="10"
     inkscape:window-y="10"
     inkscape:window-maximized="1"
     inkscape:current-layer="svg2424" />
  <defs
     id="defs2426">
    <linearGradient
       x1="112.49854"
       y1="6.1372099"
       x2="112.49853"
       y2="129.3468"
       id="path1082_2_"
       gradientUnits="userSpaceOnUse"
       gradientTransform="translate(287,-83)">
      <stop
         id="stop193"
         style="stop-color:#ffffff;stop-opacity:0"
         offset="0" />
      <stop
         id="stop195"
         style="stop-color:#ffffff;stop-opacity:0.27450982"
         offset="1" />
      <midPointStop
         offset="0"
         style="stop-color:#FFFFFF"
         id="midPointStop197" />
      <midPointStop
         offset="0.5"
         style="stop-color:#FFFFFF"
         id="midPointStop199" />
      <midPointStop
         offset="1"
         style="stop-color:#000000"
         id="midPointStop201" />
    </linearGradient>
    <linearGradient
       x1="541.33502"
       y1="104.50665"
       x2="606.91248"
       y2="303.14029"
       id="linearGradient2544"
       xlink:href="#path1082_2_"
       gradientUnits="userSpaceOnUse"
       gradientTransform="matrix(-0.3937741,0,0,0.393752,357.51969,122.00151)" />
    <linearGradient
       id="linearGradient3388">
      <stop
         id="stop3390"
         style="stop-color:#000000;stop-opacity:0"
         offset="0" />
      <stop
         id="stop3392"
         style="stop-color:#000000;stop-opacity:0.37113401"
         offset="1" />
    </linearGradient>
    <linearGradient
       x1="490.72305"
       y1="237.72447"
       x2="490.72305"
       y2="183.9644"
       id="linearGradient4416"
       xlink:href="#linearGradient3388"
       gradientUnits="userSpaceOnUse"
       gradientTransform="matrix(0.749107,0,0,0.749107,-35.459862,91.44108)" />
  </defs>
  <path
     d="M 127.97705,5.8336334 C 117.10199,32.496365 110.54269,49.936925 98.43474,75.807074 c 7.42369,7.869105 16.53591,17.033071 31.33414,27.382906 C 113.85934,96.643305 103.00709,90.070594 94.897018,83.250078 79.401158,115.58457 55.123602,161.64362 5.8566201,250.16637 44.578814,227.81137 74.595571,214.02928 102.56975,208.77039 c -1.20123,-5.16644 -1.88417,-10.75494 -1.83778,-16.58595 l 0.0459,-1.24051 c 0.61443,-24.80828 13.51969,-43.88585 28.80718,-42.59053 15.28751,1.29532 27.17033,22.46857 26.55591,47.27687 -0.11556,4.66814 -0.64211,9.15883 -1.56212,13.3239 27.67046,5.41283 57.36624,19.15964 95.56453,41.2122 -7.53196,-13.86685 -14.25487,-26.36682 -20.67502,-38.27176 -10.11278,-7.83806 -20.66089,-18.03934 -42.17703,-29.08284 14.78897,3.84278 25.37767,8.27635 33.63136,13.232 C 155.64734,74.512411 150.36143,58.363402 127.97705,5.8336334 Z"
     id="path2518"
     style="fill:#1793d1;fill-opacity:1;fill-rule:evenodd;stroke:none;stroke-width:1.47022" />
  <g
     id="text2638"
     style="font-style:normal;font-weight:normal;font-size:8.2513px;font-family:'DejaVu Sans Mono';fill:#1793d1;fill-opacity:1;stroke:none"
     transform="matrix(1.2156913,0,0,1.2156913,-53.501821,-159.42908)">
    <path
       d="m 239.84053,313.69965 v -5.20945 h -1.94598 v -0.697 h 4.68164 v 0.697 h -1.95404 v 5.20945 h -0.78162"
       id="path3940"
       style="fill:#1793d1;fill-opacity:1" />
    <path
       d="m 243.39004,313.69965 v -5.90645 h 1.17646 l 1.39805,4.18205 c 0.12892,0.38947 0.22293,0.6809 0.28202,0.87429 0.0671,-0.21488 0.1719,-0.53048 0.31426,-0.94681 l 1.41417,-4.10953 h 1.05155 v 5.90645 h -0.75341 v -4.94353 l -1.71634,4.94353 h -0.70506 l -1.70828,-5.02814 v 5.02814 h -0.75342"
       id="path3942"
       style="fill:#1793d1;fill-opacity:1" />
  </g>
  <xhtml:iframe
     class="cleanslate hidden"
     src="arch_files/commandline.html"
     id="cmdline_iframe"
     loading="lazy"
     style="height: 0px !important;" />
</svg>
