<?xml version="1.0" encoding="UTF-8" standalone="no"?>
<svg
   width="256"
   height="256"
   viewBox="0 0 256 256"
   class="TridactylThemeDark"
   version="1.1"
   id="svg1"
   sodipodi:docname="laravel.svg"
   inkscape:version="1.3 (0e150ed6c4, 2023-07-21)"
   inkscape:export-filename="laravel.png"
   inkscape:export-xdpi="96"
   inkscape:export-ydpi="96"
   xmlns:inkscape="http://www.inkscape.org/namespaces/inkscape"
   xmlns:sodipodi="http://sodipodi.sourceforge.net/DTD/sodipodi-0.dtd"
   xmlns="http://www.w3.org/2000/svg"
   xmlns:svg="http://www.w3.org/2000/svg"
   xmlns:rdf="http://www.w3.org/1999/02/22-rdf-syntax-ns#"
   xmlns:cc="http://creativecommons.org/ns#"
   xmlns:dc="http://purl.org/dc/elements/1.1/"
   xmlns:xhtml="http://www.w3.org/1999/xhtml">
  <defs
     id="defs1" />
  <sodipodi:namedview
     id="namedview1"
     pagecolor="#fafafa"
     bordercolor="#eeeeee"
     borderopacity="1"
     inkscape:showpageshadow="0"
     inkscape:pageopacity="0"
     inkscape:pagecheckerboard="0"
     inkscape:deskcolor="#d1d1d1"
     inkscape:zoom="2.298097"
     inkscape:cx="127.93193"
     inkscape:cy="127.93193"
     inkscape:window-width="1920"
     inkscape:window-height="1080"
     inkscape:window-x="0"
     inkscape:window-y="0"
     inkscape:window-maximized="1"
     inkscape:current-layer="svg1" />
  <title
     id="title1">Logomark</title>
  <path
     d="M 250.36187,58.94993 A 3.9917231,3.9917231 0 0 1 250.5,59.981169 V 114.1186 a 3.9473158,3.9473158 0 0 1 -1.98352,3.42428 l -45.43851,26.16087 v 51.85291 c 0,1.41116 -0.75001,2.71377 -1.97366,3.42428 l -94.84907,54.60125 c -0.2171,0.12335 -0.45393,0.20232 -0.69079,0.28621 -0.0888,0.0297 -0.17268,0.0838 -0.26643,0.10853 a 3.9719864,3.9719864 0 0 1 -2.023,0 c -0.10855,-0.0296 -0.20725,-0.0888 -0.31085,-0.12828 -0.21711,-0.079 -0.44408,-0.14804 -0.65133,-0.26646 L 7.4835273,198.98094 A 3.9522499,3.9522499 0 0 1 5.5000012,195.55666 V 33.144352 c 0,-0.355257 0.049337,-0.700646 0.1381575,-1.036166 0.029594,-0.113486 0.098674,-0.217105 0.1381535,-0.330591 0.07401,-0.207233 0.1430912,-0.4194 0.2516426,-0.611833 0.07401,-0.128287 0.1825627,-0.231903 0.2713783,-0.350324 0.113485,-0.157892 0.2171027,-0.320719 0.3503224,-0.458875 0.1134861,-0.113486 0.261511,-0.197367 0.3897991,-0.296047 0.1430913,-0.118421 0.2713784,-0.246708 0.4342043,-0.340458 h 0.0049 L 54.895726,2.4194362 a 3.9571842,3.9571842 0 0 1 3.947312,0 L 106.26017,29.720058 h 0.009 c 0.15789,0.09867 0.29111,0.222037 0.4342,0.335523 0.1283,0.09867 0.27138,0.187496 0.38487,0.296049 0.13816,0.143089 0.23684,0.305916 0.35526,0.463808 0.0838,0.118421 0.19737,0.222037 0.26644,0.350324 0.11347,0.197364 0.17763,0.4046 0.25656,0.611833 0.0395,0.113486 0.10856,0.217105 0.13816,0.335525 a 3.9917231,3.9917231 0 0 1 0.13817,1.031232 V 134.58543 l 39.51274,-22.75134 V 59.976233 c 0,-0.34539 0.0493,-0.695715 0.13814,-1.026303 0.0346,-0.118418 0.0986,-0.222034 0.13817,-0.33552 0.079,-0.207233 0.14803,-0.419403 0.25658,-0.611833 0.0739,-0.12829 0.18256,-0.231906 0.26644,-0.350327 0.11842,-0.15789 0.2171,-0.320717 0.35525,-0.458874 0.11349,-0.113484 0.25657,-0.197365 0.38486,-0.296051 0.14804,-0.118418 0.27633,-0.246705 0.43421,-0.340452 h 0.005 l 47.42236,-27.300624 a 3.9522499,3.9522499 0 0 1 3.94733,0 l 47.41713,27.300624 c 0.16776,0.09867 0.29605,0.222034 0.44405,0.33552 0.12338,0.09867 0.26647,0.187499 0.37995,0.296048 0.13814,0.143092 0.23685,0.305919 0.35525,0.463809 0.0888,0.118421 0.19737,0.222037 0.26644,0.350327 0.1135,0.19243 0.17762,0.4046 0.25658,0.611833 0.0445,0.113486 0.10855,0.217102 0.13814,0.33552 z m -7.76633,52.88416 V 66.81496 L 226.002,76.367465 203.07797,89.566301 v 45.019129 l 39.5225,-22.75134 z m -47.41714,81.43807 v -45.04875 l -22.54905,12.8781 -64.39059,36.74953 v 45.47307 z M 13.404499,39.978145 V 193.27216 l 86.929751,50.04702 v -45.46321 l -45.413856,-25.70196 -0.0148,-0.009 -0.01973,-0.009 c -0.152958,-0.0888 -0.281248,-0.2171 -0.424338,-0.32566 -0.123355,-0.0986 -0.266444,-0.17762 -0.374994,-0.28617 l -0.0099,-0.0148 c -0.128291,-0.12336 -0.217103,-0.27631 -0.325654,-0.41446 -0.09867,-0.13323 -0.217105,-0.24672 -0.296049,-0.38486 l -0.0049,-0.0148 c -0.08881,-0.14803 -0.143093,-0.32566 -0.207234,-0.49342 -0.06415,-0.14803 -0.148027,-0.28618 -0.187497,-0.44407 v -0.005 c -0.04935,-0.18749 -0.05921,-0.38486 -0.07895,-0.5773 -0.01974,-0.14801 -0.0592,-0.29603 -0.0592,-0.44406 v -0.009 V 62.729989 L 29.998029,49.525715 13.404499,39.983079 Z M 56.874315,10.402881 17.366619,33.144352 56.86445,55.885828 96.36721,33.139421 56.86445,10.402881 Z M 77.420096,152.32862 100.3392,139.13471 V 39.978145 L 83.745668,49.530649 60.821633,62.729487 V 161.88605 Z M 199.13064,37.239694 159.62787,59.981169 199.13064,82.722641 238.62848,59.976233 Z M 195.1784,89.566301 172.25435,76.367465 155.66083,66.81496 v 45.01913 l 22.9191,13.19391 16.59847,9.55743 z m -90.89683,101.450949 57.94166,-33.07849 28.96344,-16.5294 -39.47317,-22.72668 -45.44841,26.16578 -41.422132,23.84672 z"
     fill="#ff2d20"
     fill-rule="evenodd"
     id="path1"
     style="stroke-width:4.93416" />
  <xhtml:iframe
     class="cleanslate hidden"
     src="laravel_files/commandline.html"
     id="cmdline_iframe"
     loading="lazy"
     style="height: 0px !important;" />
  <metadata
     id="metadata1">
    <rdf:RDF>
      <cc:Work
         rdf:about="">
        <dc:title>Logomark</dc:title>
      </cc:Work>
    </rdf:RDF>
  </metadata>
</svg>
