<?xml version="1.0" encoding="UTF-8" standalone="no"?>
<svg
   viewBox="0 0 256.00001 256.00001"
   class="TridactylThemeDark"
   version="1.1"
   id="svg12"
   sodipodi:docname="numpy.svg"
   width="256"
   height="256"
   inkscape:version="1.3 (0e150ed6c4, 2023-07-21)"
   inkscape:export-filename="numpy.png"
   inkscape:export-xdpi="96"
   inkscape:export-ydpi="96"
   xmlns:inkscape="http://www.inkscape.org/namespaces/inkscape"
   xmlns:sodipodi="http://sodipodi.sourceforge.net/DTD/sodipodi-0.dtd"
   xmlns="http://www.w3.org/2000/svg"
   xmlns:svg="http://www.w3.org/2000/svg"
   xmlns:xhtml="http://www.w3.org/1999/xhtml">
  <sodipodi:namedview
     id="namedview12"
     pagecolor="#fafafa"
     bordercolor="#eeeeee"
     borderopacity="1"
     inkscape:showpageshadow="0"
     inkscape:pageopacity="0"
     inkscape:pagecheckerboard="0"
     inkscape:deskcolor="#d1d1d1"
     inkscape:zoom="1.0880746"
     inkscape:cx="363.02659"
     inkscape:cy="161.75362"
     inkscape:window-width="1920"
     inkscape:window-height="1080"
     inkscape:window-x="0"
     inkscape:window-y="0"
     inkscape:window-maximized="1"
     inkscape:current-layer="Layer_1" />
  <defs
     id="defs1">
    <style
       id="style1">.cls-1{fill:#4d77cf;}.cls-2{fill:#4dabcf;}</style>
  </defs>
  <g
     id="Layer_1"
     data-name="Layer 1">
    <g
       id="g12"
       transform="matrix(1.0578449,0,0,1.0578449,-28.545178,-43.762276)">
      <polygon
         class="cls-2"
         points="92.63,117.15 132.38,96.4 95.25,77.66 54.49,98 "
         id="polygon5" />
      <polygon
         class="cls-2"
         points="109.75,125.75 149.41,104.99 188.34,124.65 147.95,144.93 "
         id="polygon6" />
      <polygon
         class="cls-2"
         points="166.62,96.28 201.41,77.94 241.41,98 205.63,115.96 "
         id="polygon7" />
      <polygon
         class="cls-2"
         points="149.67,87.73 184.19,69.3 148.18,51.24 112.56,69.02 "
         id="polygon8" />
      <polygon
         class="cls-2"
         points="199.62,202.57 156.04,224.36 156.04,273.5 199.66,251.73 "
         id="polygon9" />
      <polygon
         class="cls-2"
         points="156.04,207.06 199.6,185.41 199.55,136.77 156.04,158.4 "
         id="polygon10" />
      <polygon
         class="cls-2"
         points="214.73,195.09 251.97,176.3 251.97,225.63 214.76,244.19 "
         id="polygon11" />
      <polygon
         class="cls-2"
         points="214.72,177.98 251.97,159.05 251.97,110.71 214.69,129.24 "
         id="polygon12" />
      <path
         class="cls-1"
         d="m 140.64,158.4 -29.38,-14.78 v 63.84 c 0,0 -35.94,-76.46 -39.26,-83.33 -0.43,-0.89 -2.19,-1.86 -2.64,-2.1 C 62.88,118.65 44,109.09 44,109.09 v 112.83 l 26.12,14 v -59 c 0,0 35.55,68.32 35.92,69.07 0.37,0.75 3.92,7.94 7.74,10.47 5.07,3.37 26.84,16.46 26.84,16.46 z"
         id="path12" />
    </g>
  </g>
  <xhtml:iframe
     class="cleanslate hidden"
     src="numpy_files/commandline.html"
     id="cmdline_iframe"
     loading="lazy"
     style="height: 0px !important;" />
</svg>
