<?xml version="1.0" encoding="UTF-8" standalone="no"?>
<svg
   id="svg2"
   height="256"
   width="256"
   version="1.1"
   sodipodi:docname="vim-latex.svg"
   inkscape:version="1.3.2 (091e20ef0f, 2023-11-25, custom)"
   inkscape:export-filename="vim-latex.png"
   inkscape:export-xdpi="96"
   inkscape:export-ydpi="96"
   xmlns:inkscape="http://www.inkscape.org/namespaces/inkscape"
   xmlns:sodipodi="http://sodipodi.sourceforge.net/DTD/sodipodi-0.dtd"
   xmlns="http://www.w3.org/2000/svg"
   xmlns:svg="http://www.w3.org/2000/svg"
   xmlns:rdf="http://www.w3.org/1999/02/22-rdf-syntax-ns#"
   xmlns:cc="http://creativecommons.org/ns#"
   xmlns:dc="http://purl.org/dc/elements/1.1/">
  <defs
     id="defs1">
    <linearGradient
       x1="167.95833"
       y1="-0.46142399"
       x2="167.95833"
       y2="335.45523"
       id="linearGradient-1"
       gradientTransform="scale(0.46142398,2.1672042)"
       gradientUnits="userSpaceOnUse">
      <stop
         stop-color="#16B0ED"
         stop-opacity="0.800235524"
         offset="0%"
         id="stop1" />
      <stop
         stop-color="#0F59B2"
         stop-opacity="0.83700023"
         offset="100%"
         id="stop2" />
    </linearGradient>
    <linearGradient
       x1="1118.3427"
       y1="-0.46586797"
       x2="1118.3427"
       y2="338.68604"
       id="linearGradient-2"
       gradientTransform="scale(0.46586797,2.1465309)"
       gradientUnits="userSpaceOnUse">
      <stop
         stop-color="#7DB643"
         offset="0%"
         id="stop3" />
      <stop
         stop-color="#367533"
         offset="100%"
         id="stop4" />
    </linearGradient>
    <linearGradient
       x1="356.33795"
       y1="0"
       x2="356.33795"
       y2="612.90131"
       id="linearGradient-3"
       gradientTransform="scale(0.84189739,1.1877932)"
       gradientUnits="userSpaceOnUse">
      <stop
         stop-color="#88C649"
         stop-opacity="0.8"
         offset="0%"
         id="stop5" />
      <stop
         stop-color="#439240"
         stop-opacity="0.84"
         offset="100%"
         id="stop6" />
    </linearGradient>
    <clipPath
       clipPathUnits="userSpaceOnUse"
       id="clipPath10">
      <g
         id="g15"
         transform="translate(-36.03758,198.01412)">
        <path
           style="fill:#008080;fill-opacity:1;stroke:none;stroke-width:1px;stroke-linecap:butt;stroke-linejoin:miter;stroke-opacity:1"
           d="m 194.91258,295.78588 v -99.71273 l -25.425,-38.17357 -9.45,9.31464 v 93.75019 z"
           id="path11" />
        <path
           style="fill:#20aa77;fill-opacity:1;stroke:none;stroke-width:1px;stroke-linecap:butt;stroke-linejoin:miter;stroke-opacity:1"
           d="m 194.91258,196.07315 -0.003,-63.86227 -25.42192,25.6887 z"
           id="path12" />
        <path
           style="fill:#37c871;fill-opacity:1;stroke:none;stroke-width:1px;stroke-linecap:butt;stroke-linejoin:miter;stroke-opacity:1"
           d="m 194.91258,196.07315 65.29077,99.71273 -0.71577,-64.14045 -64.575,-99.65955 z"
           id="path13" />
        <path
           style="fill:#20aa77;fill-opacity:1;stroke:none;stroke-width:1px;stroke-linecap:butt;stroke-linejoin:miter;stroke-opacity:1"
           d="m 260.21312,296.01088 25.37446,-25.38232 -26.1,-38.98313 z"
           id="path14" />
        <path
           style="fill:#0e927c;fill-opacity:1;stroke:none;stroke-width:1px;stroke-linecap:butt;stroke-linejoin:miter;stroke-opacity:1"
           d="m 285.58758,270.62856 9.45,-9.66819 -0.23859,-93.42845 -35.31141,-35.54604 v 99.65955 z"
           id="path15" />
      </g>
    </clipPath>
  </defs>
  <sodipodi:namedview
     id="namedview1"
     pagecolor="#ffffff"
     bordercolor="#eeeeee"
     borderopacity="1"
     inkscape:showpageshadow="0"
     inkscape:pageopacity="0"
     inkscape:pagecheckerboard="0"
     inkscape:deskcolor="#d1d1d1"
     showborder="false"
     inkscape:zoom="0.62337112"
     inkscape:cx="127.53238"
     inkscape:cy="129.93865"
     inkscape:window-width="945"
     inkscape:window-height="1036"
     inkscape:window-x="965"
     inkscape:window-y="10"
     inkscape:window-maximized="1"
     inkscape:current-layer="svg2" />
  <metadata
     id="metadata61">
    <rdf:RDF>
      <cc:Work
         rdf:about="">
        <dc:format>image/svg+xml</dc:format>
        <dc:type
           rdf:resource="http://purl.org/dc/dcmitype/StillImage" />
      </cc:Work>
    </rdf:RDF>
  </metadata>
  <g
     id="g3"
     transform="matrix(0.22971185,0,0,0.22971185,10.258894,60.209736)">
    <path
       d="M 364.09,23.89 H 14.82 L 4.61,157.66 H 15.48 C 23.3,57.47 31.89,39.93 125.69,39.93 c 10.87,0 28.53,0 33.39,0 11.55,1.81 11.55,9.16 11.55,23.08 v 329.26 c 0,21.86 -1.83,28.53 -52.78,28.53 h -17.17 v 14.61 c 29.02,-0.56 59.26,-1.15 88.93,-1.15 29.58,0 59.91,0.59 88.91,1.15 V 420.8 h -16.88 c -50.19,0 -52,-6.67 -52,-28.53 V 63.02 c 0,-13.36 0,-20.61 10.89,-23.08 h 33.19 c 92.55,0 101.61,17.44 109.42,117.73 h 10.89"
       id="path1-6" />
    <path
       d="m 667.6,414.32 h -10.87 c -13.26,89.69 -21.08,138.44 -127.47,138.44 h -83.95 c -24.16,0 -25.3,-3.05 -25.3,-23.86 V 359.83 h 57.06 c 57.06,0 62.5,20.91 62.5,71.96 h 9.72 V 274.44 h -9.72 c 0,50.19 -5.45,70.71 -62.5,70.71 H 420 v -149.9 c 0,-20.42 1.15,-23.47 25.3,-23.47 H 528 c 93.6,0 104.49,37.2 112.97,117.17 h 10.9 L 637.36,155.17 H 331.1 v 16.61 c 42.84,0 49.7,0 49.7,27.19 v 326.42 c 0,27.19 -6.77,27.19 -49.7,27.19 v 14.61 h 314.76"
       id="path2-2" />
    <path
       d="M 830.66,206.51 920.15,77.13 c 8.96,-12.7 27.19,-38.84 76.82,-39.5 v -14.6 c -13.85,1.15 -36.83,1.15 -51.34,1.15 -19.93,0 -44.75,0 -59.82,-1.15 v 14.61 c 19.37,1.81 24.13,13.92 24.13,23.67 0,7.23 -2.96,12.11 -7.25,18.12 L 822.84,195.25 733.35,64.26 c -4.2,-6.59 -4.79,-8.5 -4.79,-10.31 0,-5.45 6.59,-15.75 26.62,-16.32 v -14.6 c -19.37,1.15 -48.95,1.15 -68.88,1.15 -15.66,0 -45.89,0 -60.5,-1.15 v 14.61 c 33.22,0 44.09,1.25 57.45,20.03 L 799.93,229.04 694.71,382.75 C 668.75,420.34 629.45,421 617.89,421 v 14.61 c 13.82,-1.15 36.83,-1.15 51.34,-1.15 16.32,0 44.75,0 59.82,1.15 V 421 c -18.71,-1.81 -24.13,-13.92 -24.13,-23.67 0,-7.82 2.96,-12.11 6.01,-16.41 l 96.75,-141.2 105.22,154.66 c 4.76,6.69 4.76,8.5 4.76,10.31 0,4.76 -5.42,15.17 -26.6,16.41 v 14.61 c 19.37,-1.15 48.95,-1.15 68.88,-1.15 15.66,0 45.89,0 60.57,1.15 V 421.1 c -38.74,0 -44.84,-2.96 -56.86,-20.03"
       id="path3-9" />
  </g>
</svg>
